<svg width="61" height="43" viewBox="0 0 61 43" fill="none" xmlns="http://www.w3.org/2000/svg">
<path d="M7.848 38.016C7.592 37.984 7.408 37.888 7.296 37.728C7.2 37.568 7.16 37.408 7.176 37.248C7.176 37.056 7.24 36.896 7.368 36.768C7.496 36.64 7.68 36.576 7.92 36.576C8.16 36.592 8.4 36.6 8.64 36.6C8.88 36.616 9.12 36.624 9.36 36.624C10.32 36.624 11.168 36.552 11.904 36.408C12.656 36.264 13.248 36.008 13.68 35.64C14.112 35.272 14.328 34.752 14.328 34.08C14.328 33.632 14.208 33.312 13.968 33.12C13.744 32.912 13.44 32.784 13.056 32.736C12.688 32.672 12.28 32.64 11.832 32.64C11.24 32.64 10.632 32.672 10.008 32.736C9.4 32.784 8.768 32.808 8.112 32.808C6.768 32.808 5.552 32.576 4.464 32.112C3.392 31.648 2.536 30.976 1.896 30.096C1.272 29.2 0.96 28.12 0.96 26.856C0.96 25.752 1.184 24.72 1.632 23.76C2.08 22.784 2.696 21.936 3.48 21.216C4.264 20.496 5.168 19.936 6.192 19.536C7.216 19.12 8.304 18.912 9.456 18.912C10.72 18.912 12 19.144 13.296 19.608C14.592 20.072 15.84 20.744 17.04 21.624C17.152 21.704 17.224 21.8 17.256 21.912C17.304 22.024 17.328 22.136 17.328 22.248C17.328 22.408 17.288 22.552 17.208 22.68C17.048 22.92 16.848 23.04 16.608 23.04C16.48 23.04 16.352 22.992 16.224 22.896C15.152 22.144 14.032 21.552 12.864 21.12C11.696 20.688 10.552 20.472 9.432 20.472C8.52 20.472 7.648 20.648 6.816 21C6 21.336 5.272 21.8 4.632 22.392C3.992 22.968 3.488 23.64 3.12 24.408C2.752 25.16 2.568 25.952 2.568 26.784C2.568 27.84 2.832 28.712 3.36 29.4C3.888 30.072 4.608 30.568 5.52 30.888C6.448 31.208 7.488 31.368 8.64 31.368C9.344 31.368 10.024 31.344 10.68 31.296C11.352 31.248 11.928 31.224 12.408 31.224C13.4 31.224 14.224 31.504 14.88 32.064C15.536 32.608 15.864 33.312 15.864 34.176C15.864 35.136 15.56 35.896 14.952 36.456C14.36 37.032 13.552 37.44 12.528 37.68C11.52 37.92 10.376 38.04 9.096 38.04C8.888 38.04 8.68 38.04 8.472 38.04C8.28 38.04 8.072 38.032 7.848 38.016ZM20.8253 37.728C20.6493 37.728 20.4893 37.672 20.3453 37.56C20.2173 37.464 20.1373 37.32 20.1053 37.128C19.9933 36.36 19.8973 35.6 19.8173 34.848C19.7533 34.08 19.7213 33.328 19.7213 32.592C19.7213 31.408 19.8173 30.256 20.0093 29.136C20.2013 28 20.4973 26.912 20.8973 25.872C21.3933 24.608 22.0413 23.512 22.8413 22.584C23.6413 21.64 24.5533 20.904 25.5773 20.376C26.6173 19.848 27.7373 19.584 28.9373 19.584C30.1533 19.584 31.2893 19.864 32.3453 20.424C33.4013 20.984 34.3293 21.744 35.1293 22.704C35.9453 23.648 36.5773 24.72 37.0253 25.92C37.4413 26.944 37.7453 28.048 37.9373 29.232C38.1293 30.4 38.2253 31.6 38.2253 32.832C38.2253 33.552 38.1933 34.272 38.1293 34.992C38.0813 35.696 38.0013 36.4 37.8893 37.104C37.8733 37.328 37.7853 37.488 37.6253 37.584C37.4813 37.68 37.3293 37.728 37.1693 37.728C36.9773 37.728 36.7933 37.648 36.6173 37.488C36.4573 37.344 36.4013 37.152 36.4493 36.912C36.5293 36.304 36.5933 35.688 36.6413 35.064C36.6893 34.424 36.7133 33.792 36.7133 33.168C36.7133 31.936 36.6173 30.736 36.4253 29.568C36.2333 28.384 35.9293 27.304 35.5133 26.328C35.1133 25.336 34.5773 24.448 33.9053 23.664C33.2333 22.88 32.4653 22.264 31.6013 21.816C30.7533 21.352 29.8333 21.12 28.8413 21.12C27.8813 21.12 27.0013 21.336 26.2013 21.768C25.4013 22.184 24.6893 22.76 24.0653 23.496C23.4573 24.232 22.9373 25.072 22.5053 26.016C22.0893 26.944 21.7773 27.92 21.5693 28.944H34.6973C34.9533 28.944 35.1373 29.024 35.2493 29.184C35.3613 29.328 35.4173 29.488 35.4173 29.664C35.4173 29.84 35.3533 30.008 35.2253 30.168C35.0973 30.312 34.9213 30.384 34.6973 30.384H21.3293C21.2973 30.672 21.2653 30.992 21.2333 31.344C21.2173 31.696 21.2093 32.072 21.2093 32.472C21.2093 33.24 21.2413 34.024 21.3053 34.824C21.3693 35.624 21.4413 36.312 21.5213 36.888C21.5533 37.16 21.4893 37.368 21.3293 37.512C21.1693 37.656 21.0013 37.728 20.8253 37.728Z" fill="#0B0044"/>
<path d="M45.2614 4.75354C43.109 7.95098 41.3346 11.3479 39.3334 14.6296" stroke="#0B0044" stroke-width="2.08333" stroke-miterlimit="1.5" stroke-linecap="round" stroke-linejoin="round"/>
<path d="M56.0218 4.47913C51.0008 8.276 46.3162 12.679 41.932 17.182" stroke="#0B0044" stroke-width="2.08333" stroke-miterlimit="1.5" stroke-linecap="round" stroke-linejoin="round"/>
<path d="M57.6127 15.3334C53.3459 16.0061 47.6758 18.7996 43.5529 20.5304" stroke="#0B0044" stroke-width="2.08333" stroke-miterlimit="1.5" stroke-linecap="round" stroke-linejoin="round"/>
</svg>
